# xmcd CD database file
#
# Track frame offsets:
#	150
#	23813
#	52052
#	70459
#	92847
#	115235
#	136599
#	154696
#	170177
#	188573
#	208070
#	234331
#	255493
#	276812
#	306159
#
# Disc length: 4398 seconds
#
# Revision: 0
# Processed by: cddbd v1.5.1PL0 Copyright (c) Steve Scherf et al.
# Submitted via: CDex 1.51
#
DISCID=d1112c0f
DTITLE=Marva Wright - Marva
DYEAR=2000
DGENRE=Blues
TTITLE0=I'm Still Wearing Your Name
TTITLE1=Difficult Woman
TTITLE2=Love Away The Pain
TTITLE3=Let Them Talk
TTITLE4=Let Them Talk
TTITLE5=The Weight
TTITLE6=Rockin' Pneumonia
TTITLE7=I Been Hoodood
TTITLE8=You've Been Partying All Night
TTITLE9=The Maker
TTITLE10=Serve Somebody
TTITLE11=Knocking On Heaven's Door
TTITLE12=You Broke a Beautiful Thing
TTITLE13=Guess Who
TTITLE14=Cabbage Alley
EXTD=YEAR: 2000
EXTT0=
EXTT1=
EXTT2=
EXTT3=
EXTT4=
EXTT5=
EXTT6=
EXTT7=
EXTT8=
EXTT9=
EXTT10=
EXTT11=
EXTT12=
EXTT13=
EXTT14=
PLAYORDER=
